<?xml version="1.0" encoding="UTF-8"?><svg id="Ebene_1" xmlns="http://www.w3.org/2000/svg" xmlns:xlink="http://www.w3.org/1999/xlink" viewBox="0 0 800 140"><defs><style>.cls-1{fill:none;}.cls-2{clip-path:url(#clippath);}.cls-3{fill:#002c50;}.cls-4{clip-path:url(#clippath-1);}</style><clipPath id="clippath"><rect class="cls-1" x=".12" width="799.88" height="140"/></clipPath><clipPath id="clippath-1"><rect class="cls-1" x=".12" width="799.88" height="140"/></clipPath></defs><path d="m556.35,6.59v-2.9h-18.84v30.34h3.24v-13.38h13.29v-2.9h-13.29V6.59h15.6Zm26.76,27.44v-2.9h-15.51V3.69h-3.24v30.34h18.75Zm28.03-10.01V3.69h-3.24v20.07c0,4.6-2.94,7.63-7.37,7.63s-7.33-3.03-7.33-7.63V3.69h-3.24v20.33c0,6.05,4.43,10.27,10.57,10.27s10.61-4.22,10.61-10.27h0Zm30.64-1.07v-4.82h-10.69v2.85h7.46v2.3c0,2.34-.47,4.01-1.71,5.5-1.41,1.7-3.54,2.6-5.75,2.6-2,0-3.92-.77-5.24-2.13-1.92-1.96-2.13-4.05-2.13-10.4s.21-8.39,2.13-10.35c1.32-1.36,3.24-2.17,5.24-2.17,3.79,0,6.52,2.34,7.37,6.18h3.24c-.9-5.33-4.82-9.08-10.61-9.08-3.03,0-5.71,1.11-7.76,3.15-2.85,2.85-2.85,5.84-2.85,12.27s0,9.42,2.85,12.27c2.04,2.05,4.77,3.15,7.76,3.15s5.96-1.19,8.1-3.49c1.88-2,2.6-4.35,2.6-7.84h0Zm30.13,11.08V3.69h-3.24v13.59h-14.4V3.69h-3.24v30.34h3.24v-13.85h14.4v13.85h3.24Zm31.62,0l-11.12-30.34h-2.73l-11.16,30.34h3.45l2.43-6.86h13.25l2.43,6.86h3.45Zm-6.82-9.67h-11.33l5.71-16.02,5.62,16.02h0Zm33.53-17.77v-2.9h-18.83v30.34h3.24v-13.38h13.29v-2.9h-13.29V6.59h15.6Zm27.7,27.44v-2.9h-15.6v-10.95h13.29v-2.9h-13.29V6.59h15.6v-2.9h-18.83v30.34h18.83Zm32.13,0V3.69h-3.24v24.25l-16.11-24.25h-3.07v30.34h3.24V9.7l16.11,24.33h3.07Z"/><path d="m564.15,85.18v-30.34h-5.84l-7.88,16.41-7.92-16.41h-5.84v30.34h5.92v-17.68l5.84,11.51h4.01l5.8-11.51v17.68h5.92Zm26.97-33.36v-5.33h-4.73v5.33h4.73Zm-9.42,0v-5.33h-4.73v5.33h4.73Zm13.51,22.97v-19.94h-5.88v19.73c0,3.49-2.09,5.58-5.28,5.58s-5.24-2.09-5.24-5.58v-19.73h-5.92v19.94c0,6.43,4.94,10.65,11.16,10.65s11.16-4.22,11.16-10.65h0Zm31.96,10.4v-30.34h-5.92v18.58l-12.02-18.58h-5.28v30.34h5.92v-18.62l12.02,18.62h5.28Zm28.8-8.95c0-2.68-.72-4.9-2.34-6.43-1.28-1.19-3.03-1.96-5.8-2.34l-3.58-.51c-1.23-.17-2.21-.64-2.81-1.19-.64-.6-.9-1.41-.9-2.17,0-2.09,1.53-3.84,4.69-3.84,2,0,4.3.26,6.22,2.09l3.75-3.71c-2.6-2.51-5.62-3.54-9.8-3.54-6.56,0-10.57,3.79-10.57,9.2,0,2.56.73,4.52,2.17,5.97,1.36,1.32,3.28,2.13,5.88,2.51l3.66.51c1.41.21,2.09.51,2.68,1.07.64.6.94,1.49.94,2.56,0,2.43-1.88,3.75-5.37,3.75-2.81,0-5.41-.64-7.33-2.56l-3.83,3.83c2.98,3.03,6.48,4.01,11.08,4.01,6.35,0,11.25-3.32,11.25-9.2h0Zm26.8-16.11v-5.28h-21.78v5.28h7.93v25.06h5.92v-25.06h7.93Zm26.93,25.06v-5.28h-14.06v-7.37h11.97v-5.28h-11.97v-7.12h14.06v-5.28h-19.99v30.34h19.99Zm30.47,0l-6.78-13.08c2.94-1.07,5.54-3.71,5.54-7.97,0-5.07-3.66-9.29-9.84-9.29h-11.89v30.34h5.92v-12.1h4.26l5.92,12.1h6.86Zm-7.16-21.05c0,2.34-1.7,4.01-4.3,4.01h-5.58v-8.01h5.58c2.6,0,4.3,1.66,4.3,4.01h0Z"/><g class="cls-2"><path d="m558.05,121.14c0-5.24.04-9.03-3.03-12.1-2.13-2.13-4.73-3.32-8.18-3.32s-6.09,1.19-8.22,3.32c-3.07,3.07-2.98,6.86-2.98,12.1s-.09,9.03,2.98,12.1c2.13,2.13,4.77,3.32,8.22,3.32s6.05-1.19,8.18-3.32c3.07-3.07,3.03-6.86,3.03-12.1h0Zm-5.92,0c0,5.84-.34,7.24-1.49,8.52-.85.98-2.17,1.62-3.79,1.62s-2.98-.64-3.83-1.62c-1.15-1.28-1.45-2.68-1.45-8.52s.3-7.24,1.45-8.52c.85-.98,2.22-1.62,3.83-1.62s2.94.64,3.79,1.62c1.15,1.28,1.49,2.68,1.49,8.52h0Zm33.28,6.22c0-2.68-.73-4.9-2.34-6.43-1.28-1.19-3.03-1.96-5.8-2.34l-3.58-.51c-1.24-.17-2.22-.64-2.81-1.19-.64-.6-.9-1.41-.9-2.17,0-2.09,1.53-3.84,4.69-3.84,2,0,4.3.26,6.22,2.09l3.75-3.71c-2.6-2.51-5.62-3.54-9.8-3.54-6.56,0-10.57,3.79-10.57,9.2,0,2.56.72,4.52,2.17,5.96,1.36,1.32,3.28,2.13,5.88,2.51l3.67.51c1.41.21,2.09.51,2.68,1.07.64.6.94,1.49.94,2.56,0,2.43-1.88,3.75-5.37,3.75-2.81,0-5.41-.64-7.33-2.56l-3.84,3.84c2.98,3.02,6.48,4.01,11.08,4.01,6.35,0,11.25-3.32,11.25-9.2h0Zm30.51,8.95v-30.34h-5.92v18.58l-12.02-18.58h-5.28v30.34h5.92v-18.62l12.02,18.62h5.28Zm33.49,0l-11.08-30.34h-4.64l-11.04,30.34h6.18l1.83-5.37h10.78l1.79,5.37h6.18Zm-9.55-10.36h-7.54l3.83-11.04,3.71,11.04h0Zm38.69,1.62c0-4.05-2.34-5.96-4.18-6.82,1.53-.72,3.75-2.9,3.75-6.26,0-5.2-3.45-8.52-9.37-8.52h-12.19v30.34h12.7c5.41,0,9.29-3.07,9.29-8.74h0Zm-6.35-12.83c0,2.09-1.41,3.49-3.92,3.49h-5.79v-6.99h5.79c2.51,0,3.92,1.41,3.92,3.49h0Zm.43,12.53c0,2.04-1.28,3.75-3.96,3.75h-6.18v-7.46h6.18c2.69,0,3.96,1.66,3.96,3.71h0Zm37.5,9.03l-6.78-13.08c2.94-1.07,5.54-3.71,5.54-7.97,0-5.07-3.66-9.29-9.84-9.29h-11.89v30.34h5.92v-12.1h4.26l5.92,12.1h6.86Zm-7.16-21.05c0,2.34-1.7,4.01-4.3,4.01h-5.58v-8.01h5.58c2.6,0,4.3,1.66,4.3,4.01h0Zm31.53-12.31v-5.33h-4.73v5.33h4.73Zm-9.42,0v-5.33h-4.73v5.33h4.73Zm13.51,22.97v-19.94h-5.88v19.73c0,3.49-2.09,5.58-5.28,5.58s-5.24-2.09-5.24-5.58v-19.73h-5.92v19.94c0,6.43,4.94,10.65,11.16,10.65s11.16-4.22,11.16-10.65h0Zm29.61,1.07h-6.01c-.6,2.43-2.13,4.3-5.11,4.3-1.62,0-2.94-.6-3.79-1.58-1.15-1.28-1.49-2.73-1.49-8.57s.34-7.29,1.49-8.57c.85-.98,2.17-1.58,3.79-1.58,2.98,0,4.52,1.88,5.11,4.3h6.01c-1.07-6.35-5.5-9.59-11.16-9.59-3.32,0-6.05,1.19-8.18,3.32-3.07,3.07-2.98,6.86-2.98,12.1s-.09,9.03,2.98,12.1c2.13,2.13,4.86,3.32,8.18,3.32,5.62,0,10.1-3.24,11.16-9.59h0Zm31.79,9.33l-10.78-18.28,10.06-12.06h-7.2l-10.69,13.21v-13.21h-5.92v30.34h5.92v-9.12l3.92-4.69,7.8,13.81h6.9Z"/><path class="cls-3" d="m154.06,7.33c0-2.09-1.69-3.78-3.78-3.78H31.26s0,0,0,0c-3.03-.04-6.07,1.1-8.38,3.41L3.39,26.44C1.12,28.72,0,31.7,0,34.68v5.04c0,2.09,1.69,3.78,3.77,3.78.99,0,1.89-.39,2.57-1.02l12.85-12.85c2.6-2.6,6.02-3.88,9.44-3.85h0s105.2,0,105.2,0h0c2.36-.02,4.47-1.05,5.95-2.66l13.29-13.26c.61-.67.99-1.55.99-2.53h0Z"/></g><path class="cls-3" d="m311.29,111.01V7.33c0-2.09-1.69-3.78-3.78-3.78h-19.79c-1.42,0-2.65.8-3.29,1.96h-.01s-49.54,85.79-49.54,85.79L185.19,5.22h0c-.68-1.01-1.83-1.68-3.14-1.68-1.02,0-1.93.41-2.61,1.06l-18.74,18.74h0c-1.37,1.46-2.22,3.42-2.22,5.58v103.68c0,2.09,1.69,3.78,3.78,3.78,1.02,0,1.93-.41,2.61-1.06l18.73-18.74h0c1.37-1.46,2.22-3.42,2.22-5.58v-49.99l34.5,59.75c.63,1.16,1.85,1.96,3.26,1.98h0s22.52,0,22.54,0c1.39,0,2.59-.76,3.24-1.87h.01s34.57-59.86,34.57-59.86v71.59h0c0,2.09,1.69,3.78,3.78,3.78,1.02,0,1.93-.41,2.61-1.06,0,0,18.62-18.62,18.73-18.73h0c1.37-1.47,2.22-3.43,2.22-5.59h0Z"/><g class="cls-4"><path class="cls-3" d="m495.69,111.01V7.33h0c0-2.09-1.69-3.78-3.78-3.78h-123.67c-2.24,0-4.27.9-5.74,2.37h0s-17.42,17.43-17.42,17.43c-1.33,1.42-2.17,3.31-2.21,5.4,0,.07,0,103.86,0,103.86h0c0,2.09,1.69,3.78,3.78,3.78h123.67c2.24,0,4.27-.9,5.74-2.37h0s17.31-17.31,17.41-17.43h0c1.37-1.47,2.22-3.43,2.22-5.59h0Zm-27.37-5.78s0,0,0,0c0,2.08-1.68,3.77-3.76,3.78h0s-.02,0-.02,0h-90.52s-.02,0-.02,0c-2.09,0-3.78-1.69-3.78-3.78,0,0,0,0,0,0h0V34.68h0c0-2.08,1.7-3.77,3.78-3.77,0,0,.01,0,.02,0h0s90.54,0,90.54,0h0c2.07.01,3.75,1.69,3.76,3.77h0v70.55h0Z"/><path class="cls-3" d="m123.98,39.53c0-2.09-1.69-3.78-3.78-3.78H30.46s0,0,0,0c-2.82.11-5.62,1.23-7.77,3.38L3.41,58.4C1.09,60.73-.02,63.79.03,66.84l-.03,65.77c0,2.09,1.69,3.78,3.78,3.78,1.07,0,2.04-.45,2.72-1.17l18.62-18.63c1.37-1.46,2.22-3.42,2.22-5.58v-44.1s.01,0,.01,0h0s0-.01,0-.01c0-2.03,1.62-3.67,3.63-3.75l67.61-.05c2.16,0,4.12-.85,5.58-2.22l18.63-18.62c.72-.69,1.17-1.65,1.17-2.72h0Z"/></g></svg>