<?xml version="1.0" encoding="UTF-8"?>
<svg width="26px" height="18px" viewBox="0 0 26 18" version="1.1" xmlns="http://www.w3.org/2000/svg" xmlns:xlink="http://www.w3.org/1999/xlink">
    <title>3B5FC640-9977-4E30-A58D-73E5B0AE5A2E</title>
    <g id="Mobil" stroke="none" stroke-width="1" fill="none" fill-rule="evenodd">
        <g id="10_Startseite-mobil" transform="translate(-274.000000, -18.000000)" fill="#002C50">
            <g id="Group" transform="translate(274.000000, 18.000000)">
                <g id="menu-8">
                    <path d="M11.5,9 L0.5,9 C0.2,9 0,8.6 0,8 C0,7.4 0.2,7 0.5,7 L11.5,7 C11.8,7 12,7.4 12,8 C12,8.6 11.8,9 11.5,9 Z" id="Path"></path>
                    <path d="M23,2 L1,2 C0.4,2 0,1.6 0,1 C0,0.4 0.4,0 1,0 L23,0 C23.6,0 24,0.4 24,1 C24,1.6 23.6,2 23,2 Z" id="Path"></path>
                    <path d="M11.5,16 L0.5,16 C0.2,16 0,15.6 0,15 C0,14.4 0.2,14 0.5,14 L11.5,14 C11.8,14 12,14.4 12,15 C12,15.6 11.8,16 11.5,16 Z" id="Path"></path>
                </g>
                <g id="zoom" transform="translate(13.970022, 5.970022)" fill-rule="nonzero">
                    <path d="M11.7369779,10.3229779 L9.19697792,7.78297792 C10.6182844,5.63560017 10.1822119,2.76074542 8.18803973,1.13144476 C6.19386753,-0.497855909 3.28978803,-0.352009171 1.46888943,1.46888943 C-0.352009171,3.28978803 -0.497855909,6.19386753 1.13144476,8.18803973 C2.76074542,10.1822119 5.63560017,10.6182844 7.78297792,9.19697792 L10.3229779,11.7369779 C10.7153568,12.1159501 11.3390627,12.1105303 11.7247965,11.7247965 C12.1105303,11.3390627 12.1159501,10.7153568 11.7369779,10.3229779 Z M2.02997792,5.02997792 C2.02997792,3.37312367 3.37312367,2.02997792 5.02997792,2.02997792 C6.68683217,2.02997792 8.02997792,3.37312367 8.02997792,5.02997792 C8.02997792,6.68683217 6.68683217,8.02997792 5.02997792,8.02997792 C3.37312367,8.02997792 2.02997792,6.68683217 2.02997792,5.02997792 Z" id="Shape"></path>
                </g>
            </g>
        </g>
    </g>
</svg>